<?xml version="1.0" encoding="utf-8"?>
<!-- Generator: Adobe Illustrator 26.2.1, SVG Export Plug-In . SVG Version: 6.00 Build 0)  -->
<svg version="1.1" id="Camada_2" xmlns="http://www.w3.org/2000/svg" xmlns:xlink="http://www.w3.org/1999/xlink" x="0px" y="0px"
	 viewBox="0 0 1080 1080" style="enable-background:new 0 0 1080 1080;" xml:space="preserve">
<style type="text/css">
	.st0{fill:#670379;}
	.st1{fill:#FFFFFF;}
</style>
<g>
	<path class="st0" d="M381.15,491.27v112.99H355v-46.33h-51.33v46.33h-26.15V491.27h26.15v44.55H355v-44.55H381.15z"/>
	<path class="st0" d="M449.93,535.03c6.36,5.65,9.54,14.16,9.54,25.55v43.69h-20.78v-9.54c-4.18,7.12-11.96,10.67-23.34,10.67
		c-5.88,0-10.98-1-15.3-2.99c-4.32-1.99-7.61-4.74-9.89-8.25c-2.28-3.51-3.42-7.49-3.42-11.96c0-7.12,2.68-12.71,8.04-16.79
		c5.36-4.08,13.64-6.12,24.83-6.12h17.65c0-4.84-1.47-8.56-4.41-11.17c-2.94-2.61-7.35-3.91-13.24-3.91
		c-4.08,0-8.09,0.64-12.03,1.92c-3.94,1.28-7.28,3.01-10.03,5.2l-7.97-15.51c4.17-2.94,9.18-5.22,15.01-6.83
		c5.84-1.61,11.83-2.42,18-2.42C434.47,526.56,443.57,529.38,449.93,535.03z M431,587.83c2.94-1.75,5.03-4.34,6.26-7.76v-7.83
		h-15.23c-9.11,0-13.66,2.99-13.66,8.97c0,2.85,1.11,5.1,3.34,6.76c2.23,1.66,5.29,2.49,9.18,2.49
		C424.69,590.46,428.06,589.58,431,587.83z"/>
	<path class="st0" d="M537.52,535.1c5.83,5.69,8.75,14.14,8.75,25.33v43.83h-22.2v-40.42c0-6.07-1.33-10.6-3.99-13.59
		c-2.66-2.99-6.5-4.48-11.53-4.48c-5.6,0-10.06,1.73-13.38,5.19c-3.32,3.46-4.98,8.61-4.98,15.44v37.86H468V527.7h21.21v8.97
		c2.94-3.22,6.59-5.72,10.96-7.47c4.36-1.76,9.16-2.63,14.37-2.63C524.03,526.56,531.69,529.41,537.52,535.1z"/>
	<path class="st0" d="M633.66,498.67v105.6h-21.2v-8.82c-5.5,6.64-13.47,9.96-23.91,9.96c-7.21,0-13.73-1.61-19.57-4.84
		c-5.84-3.22-10.41-7.83-13.73-13.8c-3.32-5.98-4.98-12.9-4.98-20.78c0-7.87,1.66-14.8,4.98-20.78c3.32-5.98,7.9-10.58,13.73-13.8
		c5.83-3.22,12.36-4.84,19.57-4.84c9.77,0,17.41,3.08,22.91,9.25v-37.14H633.66z M606.33,581.42c3.7-3.84,5.55-8.99,5.55-15.44
		c0-6.45-1.85-11.6-5.55-15.44c-3.7-3.84-8.35-5.76-13.95-5.76c-5.69,0-10.39,1.92-14.09,5.76c-3.7,3.84-5.55,8.99-5.55,15.44
		c0,6.45,1.85,11.6,5.55,15.44c3.7,3.84,8.4,5.76,14.09,5.76C597.98,587.19,602.63,585.27,606.33,581.42z"/>
	<path class="st1" d="M652.77,602.9c-5.3-1.55-9.53-3.5-12.69-5.87l6.15-12.96c3.08,2.18,6.77,3.93,11.09,5.25
		c4.31,1.32,8.57,1.98,12.75,1.98c9.57,0,14.36-2.68,14.36-8.05c0-2.54-1.22-4.32-3.65-5.32c-2.44-1-6.35-1.95-11.73-2.86
		c-5.64-0.91-10.23-1.95-13.78-3.14c-3.55-1.18-6.62-3.25-9.23-6.21c-2.61-2.95-3.91-7.07-3.91-12.34c0-6.91,2.71-12.43,8.14-16.57
		c5.43-4.14,12.75-6.21,21.98-6.21c4.7,0,9.4,0.57,14.1,1.71c4.7,1.14,8.54,2.66,11.54,4.57l-6.15,12.96
		c-5.81-3.64-12.35-5.46-19.61-5.46c-4.7,0-8.27,0.75-10.7,2.25c-2.44,1.5-3.65,3.48-3.65,5.93c0,2.73,1.3,4.66,3.91,5.8
		c2.61,1.14,6.64,2.21,12.11,3.21c5.47,0.91,9.95,1.96,13.46,3.14c3.5,1.18,6.52,3.18,9.04,6c2.52,2.82,3.78,6.82,3.78,12
		c0,6.82-2.78,12.28-8.33,16.37c-5.56,4.09-13.12,6.14-22.69,6.14C663.49,605.22,658.06,604.45,652.77,602.9z"/>
	<path class="st1" d="M761.78,535.24c5.26,3.09,9.38,7.46,12.37,13.09c2.99,5.64,4.49,12.14,4.49,19.51c0,7.37-1.5,13.89-4.49,19.57
		c-2.99,5.68-7.11,10.07-12.37,13.16c-5.26,3.09-11.22,4.64-17.88,4.64c-9.23,0-16.54-3.27-21.92-9.82v35.33h-16.02v-99.3h15.25
		v9.55c2.65-3.45,5.92-6.05,9.81-7.78c3.89-1.73,8.18-2.59,12.88-2.59C750.57,530.6,756.53,532.15,761.78,535.24z M756.65,584.35
		c3.8-4.18,5.7-9.69,5.7-16.51s-1.9-12.32-5.7-16.5c-3.8-4.18-8.65-6.28-14.55-6.28c-3.84,0-7.31,0.93-10.38,2.8
		c-3.08,1.86-5.51,4.53-7.31,7.98c-1.79,3.46-2.69,7.46-2.69,12c0,4.55,0.9,8.55,2.69,12c1.79,3.46,4.23,6.12,7.31,7.98
		c3.08,1.86,6.54,2.8,10.38,2.8C748,590.62,752.85,588.53,756.65,584.35z"/>
	<path class="st1" d="M785.64,549.94H804l-1.52,12.46l-0.71,14.7l0.8,15.81l1.44,11.35h-18.36l-1.45-11.47l-0.79-14.68l0.76-16.6
		L785.64,549.94z"/>
	<path class="st1" d="M838.11,573.03l-11.92,12v19.23h-16.02V490.71h16.02v73.45l33.2-32.74h19.23l-28.58,30.55l31.28,42.29h-19.48
		L838.11,573.03z"/>
	<path class="st1" d="M942.57,573.3h-53.71c0.94,5.37,3.4,9.62,7.37,12.75c3.97,3.14,8.91,4.71,14.8,4.71
		c7.52,0,13.71-2.64,18.58-7.91l8.59,10.5c-3.08,3.91-6.97,6.87-11.66,8.87c-4.7,2-10,3-15.89,3c-7.52,0-14.14-1.59-19.87-4.77
		c-5.73-3.18-10.15-7.62-13.27-13.3c-3.12-5.68-4.68-12.12-4.68-19.3c0-7.09,1.52-13.48,4.55-19.16c3.03-5.68,7.24-10.12,12.62-13.3
		c5.38-3.18,11.45-4.77,18.2-4.77c6.67,0,12.63,1.57,17.88,4.71c5.26,3.14,9.36,7.55,12.31,13.23c2.95,5.68,4.42,12.26,4.42,19.71
		C942.83,569.44,942.74,571.12,942.57,573.3z M895.21,549.09c-3.55,3.23-5.7,7.53-6.47,12.89h38.84c-0.68-5.27-2.78-9.55-6.28-12.82
		c-3.5-3.27-7.86-4.91-13.07-4.91C903.09,544.25,898.75,545.86,895.21,549.09z"/>
</g>
<g>
	<path class="st1" d="M809.93,637.93l-0.03-18.12l-8.86,15.31h-0.76l-8.86-15.25v18.06h-1.51v-21.17h1.3l9.47,16.36l9.47-16.36h1.27
		l0.03,21.17H809.93z"/>
	<path class="st1" d="M843.11,636.54v1.39H828.5v-21.17h14.16v1.39h-12.61v8.35h11.28v1.36h-11.28v8.68H843.11z"/>
	<path class="st1" d="M858.42,616.76h8.38c2.2,0,4.15,0.45,5.85,1.36c1.7,0.91,3.03,2.16,3.98,3.77c0.95,1.6,1.42,3.42,1.42,5.46
		s-0.47,3.86-1.42,5.46c-0.95,1.6-2.27,2.86-3.98,3.77s-3.66,1.36-5.85,1.36h-8.38V616.76z M866.67,636.54
		c1.96,0,3.68-0.39,5.17-1.16c1.49-0.78,2.64-1.86,3.45-3.25c0.81-1.39,1.21-2.98,1.21-4.78s-0.4-3.39-1.21-4.78
		c-0.81-1.39-1.96-2.48-3.45-3.25c-1.49-0.78-3.22-1.16-5.17-1.16h-6.71v18.39H866.67z"/>
	<path class="st1" d="M893.08,616.76h1.54v21.17h-1.54V616.76z"/>
	<path class="st1" d="M924.78,631.97H912.5l-2.69,5.96h-1.66l9.74-21.17h1.54l9.74,21.17h-1.66L924.78,631.97z M924.2,630.67
		l-5.57-12.22l-5.54,12.22H924.2z"/>
</g>
<path d="M784.47,577.1"/>
<ellipse class="st0" cx="797.68" cy="530.77" rx="15.85" ry="15.42"/>
<g>
	<polygon class="st1" points="237.97,650.93 137.9,548.87 259.59,416.7 299.73,453.66 212.65,548.23 309.54,651.04 	"/>
</g>
<circle class="st0" cx="281.29" cy="421.72" r="49.19"/>
</svg>
