<?xml version="1.0" encoding="utf-8"?>
<!-- Generator: Adobe Illustrator 26.2.1, SVG Export Plug-In . SVG Version: 6.00 Build 0)  -->
<svg version="1.1" id="Camada_1" xmlns="http://www.w3.org/2000/svg" xmlns:xlink="http://www.w3.org/1999/xlink" x="0px" y="0px"
	 viewBox="0 0 1920 1080" style="enable-background:new 0 0 1920 1080;" xml:space="preserve">
<style type="text/css">
	.st0{fill:#FFFFFF;}
</style>
<g>
	<path class="st0" d="M584,464v265.96h-61.55V620.9H401.63v109.05h-61.55V464h61.55v104.87h120.82V464H584L584,464z"/>
	<path class="st0" d="M745.9,567c14.97,13.3,22.46,33.33,22.46,60.14v102.84h-48.91v-22.46c-9.84,16.76-28.15,25.12-54.94,25.12
		c-13.84,0-25.85-2.35-36.01-7.04c-10.17-4.68-17.91-11.16-23.28-19.42c-5.37-8.26-8.05-17.63-8.05-28.15
		c0-16.76,6.31-29.92,18.93-39.52c12.62-9.6,32.11-14.41,58.45-14.41h41.55c0-11.39-3.46-20.15-10.38-26.29
		c-6.92-6.14-17.3-9.2-31.17-9.2c-9.6,0-19.04,1.51-28.32,4.52c-9.27,3.01-17.14,7.09-23.61,12.24l-18.76-36.51
		c9.82-6.92,21.61-12.29,35.33-16.08c13.75-3.79,27.85-5.7,42.37-5.7C709.51,547.06,730.93,553.7,745.9,567z M701.34,691.29
		c6.92-4.12,11.84-10.22,14.74-18.27v-18.43h-35.85c-21.44,0-32.15,7.04-32.15,21.11c0,6.71,2.61,12,7.86,15.91
		s12.45,5.86,21.61,5.86C686.49,697.48,694.42,695.4,701.34,691.29z"/>
	<path class="st0" d="M952.08,567.17c13.72,13.39,20.6,33.28,20.6,59.62v103.17h-52.26v-95.14c0-14.29-3.13-24.95-9.39-31.99
		s-15.3-10.55-27.14-10.55c-13.18,0-23.68,4.07-31.49,12.22s-11.72,20.27-11.72,36.34v89.12h-52.23V549.75h49.93v21.11
		c6.92-7.58,15.51-13.46,25.8-17.58c10.26-4.14,21.56-6.19,33.83-6.19C920.33,547.06,938.36,553.77,952.08,567.17z"/>
	<path class="st0" d="M1178.38,481.41v248.57h-49.9v-20.76c-12.95,15.63-31.71,23.44-56.28,23.44c-16.97,0-32.32-3.79-46.07-11.39
		c-13.75-7.58-24.5-18.43-32.32-32.48c-7.81-14.08-11.72-30.36-11.72-48.91c0-18.53,3.91-34.84,11.72-48.91
		c7.81-14.08,18.6-24.9,32.32-32.48c13.72-7.58,29.09-11.39,46.07-11.39c23,0,40.98,7.25,53.93,21.77v-87.42h52.26v-0.04H1178.38z
		 M1114.05,676.2c8.71-9.04,13.06-21.16,13.06-36.34c0-15.18-4.35-27.3-13.06-36.34c-8.71-9.04-19.65-13.56-32.84-13.56
		c-13.39,0-24.46,4.52-33.17,13.56c-8.71,9.04-13.06,21.16-13.06,36.34c0,15.18,4.35,27.3,13.06,36.34s19.77,13.56,33.17,13.56
		C1094.39,689.78,1105.34,685.26,1114.05,676.2z"/>
	<path class="st0" d="M1223.36,726.76c-12.48-3.65-22.43-8.24-29.87-13.82l14.48-30.51c7.25,5.13,15.94,9.25,26.1,12.36
		c10.15,3.11,20.17,4.66,30.01,4.66c22.53,0,33.8-6.31,33.8-18.95c0-5.98-2.87-10.17-8.59-12.52c-5.74-2.35-14.95-4.59-27.61-6.73
		c-13.28-2.14-24.08-4.59-32.44-7.39c-8.36-2.78-15.58-7.65-21.73-14.62c-6.14-6.94-9.2-16.64-9.2-29.05
		c0-16.27,6.38-29.26,19.16-39s30.01-14.62,51.74-14.62c11.06,0,22.13,1.34,33.19,4.03c11.06,2.68,20.1,6.26,27.16,10.76
		l-14.48,30.51c-13.68-8.57-29.07-12.85-46.16-12.85c-11.06,0-19.47,1.77-25.19,5.3c-5.74,3.53-8.59,8.19-8.59,13.96
		c0,6.43,3.06,10.97,9.2,13.65c6.14,2.68,15.63,5.2,28.51,7.56c12.88,2.14,23.42,4.61,31.68,7.39c8.24,2.78,15.35,7.49,21.28,14.12
		c5.93,6.64,8.9,16.05,8.9,28.25c0,16.05-6.54,28.91-19.61,38.53c-13.09,9.63-30.88,14.45-53.41,14.45
		C1248.6,732.22,1235.82,730.41,1223.36,726.76z"/>
	<path class="st0" d="M1479.96,567.5c12.38,7.27,22.08,17.56,29.12,30.81c7.04,13.28,10.57,28.58,10.57,45.92
		s-3.53,32.7-10.57,46.07s-16.74,23.7-29.12,30.98c-12.38,7.27-26.41,10.92-42.09,10.92c-21.73,0-38.93-7.7-51.6-23.12v83.16h-37.71
		V558.5h35.9v22.48c6.24-8.12,13.93-14.24,23.09-18.31c9.16-4.07,19.25-6.1,30.32-6.1C1453.57,556.57,1467.6,560.22,1479.96,567.5z
		 M1467.88,683.09c8.94-9.84,13.42-22.81,13.42-38.86s-4.47-29-13.42-38.84s-20.36-14.78-34.25-14.78c-9.04,0-17.21,2.19-24.43,6.59
		c-7.25,4.38-12.97,10.66-17.21,18.78c-4.21,8.14-6.33,17.56-6.33,28.25c0,10.71,2.12,20.13,6.33,28.25
		c4.21,8.14,9.96,14.41,17.21,18.78c7.25,4.38,15.39,6.59,24.43,6.59C1447.52,697.85,1458.94,692.93,1467.88,683.09z"/>
	<path class="st0" d="M1536.12,602.1h43.22l-3.58,29.33l-1.67,34.6l1.88,37.21l3.39,26.72h-43.22l-3.41-27l-1.86-34.55l1.79-39.07
		L1536.12,602.1z"/>
	<path class="st0" d="M1659.63,656.45l-28.06,28.25v45.26h-37.71V462.68h37.71v172.89l78.15-77.07h45.26l-67.27,71.91l73.63,99.55
		h-45.85L1659.63,656.45z"/>
	<path class="st0" d="M1905.52,657.08h-126.43c2.21,12.64,8,22.64,17.35,30.01c9.34,7.39,20.97,11.09,34.84,11.09
		c17.7,0,32.27-6.21,43.73-18.62l20.22,24.72c-7.25,9.2-16.41,16.17-27.45,20.88c-11.06,4.71-23.54,7.06-37.4,7.06
		c-17.7,0-33.28-3.74-46.77-11.23s-23.89-17.94-31.24-31.31c-7.34-13.37-11.02-28.53-11.02-45.43c0-16.69,3.58-31.73,10.71-45.1
		s17.04-23.82,29.71-31.31c12.66-7.49,26.95-11.23,42.84-11.23c15.7,0,29.73,3.7,42.09,11.09c12.38,7.39,22.03,17.77,28.98,31.14
		c6.94,13.37,10.4,28.86,10.4,46.39C1906.13,648,1905.92,651.95,1905.52,657.08z M1794.04,600.1c-8.36,7.6-13.42,17.72-15.23,30.34
		h91.42c-1.6-12.4-6.54-22.48-14.78-30.18s-18.5-11.56-30.77-11.56C1812.58,588.7,1802.37,592.49,1794.04,600.1z"/>
</g>
<g>
	<path class="st0" d="M1593.3,809.21l-0.07-42.65l-20.86,36.04h-1.79l-20.86-35.9v42.51h-3.55v-49.83h3.06l22.29,38.51l22.29-38.51
		h2.99l0.07,49.83L1593.3,809.21L1593.3,809.21z"/>
	<path class="st0" d="M1671.4,805.94v3.27h-34.39v-49.83h33.33v3.27h-29.68v19.65h26.55v3.2h-26.55v20.43L1671.4,805.94
		L1671.4,805.94z"/>
	<path class="st0" d="M1707.44,759.38h19.73c5.18,0,9.77,1.06,13.77,3.2s7.13,5.08,9.37,8.87c2.24,3.77,3.34,8.05,3.34,12.85
		s-1.11,9.09-3.34,12.85c-2.24,3.77-5.34,6.73-9.37,8.87s-8.62,3.2-13.77,3.2h-19.73V759.38z M1726.86,805.94
		c4.61,0,8.66-0.92,12.17-2.73c3.51-1.84,6.21-4.38,8.12-7.65s2.85-7.01,2.85-11.25s-0.94-7.98-2.85-11.25s-4.61-5.84-8.12-7.65
		c-3.51-1.84-7.58-2.73-12.17-2.73h-15.79v43.29h15.79V805.94z"/>
	<path class="st0" d="M1789.02,759.38h3.62v49.83h-3.62V759.38z"/>
	<path class="st0" d="M1863.64,795.19h-28.91l-6.33,14.03h-3.91l22.93-49.83h3.62l22.93,49.83h-3.91L1863.64,795.19z
		 M1862.27,792.13l-13.11-28.76l-13.04,28.76H1862.27z"/>
</g>
<path class="st0" d="M1533.37,666.03"/>
<ellipse class="st0" cx="1564.46" cy="556.97" rx="37.31" ry="36.3"/>
<g>
	<polygon class="st0" points="246.98,839.81 11.42,599.58 297.87,288.47 392.35,375.47 187.38,598.07 415.44,840.07 	"/>
</g>
<circle class="st0" cx="348.95" cy="300.28" r="115.79"/>
</svg>
